<svg xmlns="http://www.w3.org/2000/svg" viewBox="0 0 720 520" role="img" aria-labelledby="title desc">
  <title id="title">IoT embedded placeholder</title>
  <desc id="desc">A stylized embedded board with sensors and connected traces.</desc>
  <rect width="720" height="520" rx="16" fill="#0B1F23"/>
  <rect x="92" y="72" width="536" height="376" rx="22" fill="#005461" stroke="#A8E6CF" stroke-width="4"/>
  <rect x="250" y="160" width="220" height="150" rx="18" fill="#1E3D40" stroke="#A8E6CF" stroke-width="4"/>
  <path d="M170 170h80M170 250h80M470 198h92M470 278h92M360 110v50M360 310v70" stroke="#A8E6CF" stroke-width="8" stroke-linecap="round"/>
  <path d="M300 206h120M300 246h120" stroke="#3ED16F" stroke-width="10" stroke-linecap="round"/>
  <circle cx="168" cy="170" r="26" fill="#3ED16F"/>
  <circle cx="168" cy="250" r="26" fill="#FFF57E"/>
  <circle cx="562" cy="198" r="24" fill="#A8E6CF"/>
  <circle cx="562" cy="278" r="24" fill="#FF7EB6"/>
  <g stroke="#A8E6CF" stroke-width="8" stroke-linecap="round">
    <path d="M126 72v-34M192 72v-34M258 72v-34M324 72v-34M390 72v-34M456 72v-34M522 72v-34"/>
    <path d="M126 482v-34M192 482v-34M258 482v-34M324 482v-34M390 482v-34M456 482v-34M522 482v-34"/>
  </g>
</svg>
