<svg xmlns="http://www.w3.org/2000/svg" viewBox="0 0 620 520" role="img" aria-labelledby="title desc">
  <title id="title">Mobile UI placeholder</title>
  <desc id="desc">A stylized mobile application interface for field teams.</desc>
  <rect width="620" height="520" rx="16" fill="#1E3D40"/>
  <rect x="214" y="42" width="192" height="436" rx="32" fill="#0B1F23" stroke="#A8E6CF" stroke-width="4"/>
  <rect x="238" y="84" width="144" height="48" rx="12" fill="#005461"/>
  <rect x="238" y="158" width="144" height="92" rx="14" fill="#A8E6CF"/>
  <rect x="238" y="272" width="64" height="86" rx="14" fill="#3ED16F"/>
  <rect x="318" y="272" width="64" height="86" rx="14" fill="#FFF57E"/>
  <rect x="238" y="382" width="144" height="46" rx="14" fill="#FF7EB6"/>
  <path d="M260 108h76M260 202h78M260 224h48M260 406h84" stroke="#0B1F23" stroke-width="8" stroke-linecap="round"/>
  <path d="M268 298h24M346 298h18" stroke="#0B1F23" stroke-width="8" stroke-linecap="round"/>
  <g fill="#A8E6CF" opacity=".55">
    <circle cx="90" cy="140" r="18"/>
    <circle cx="504" cy="142" r="16"/>
    <circle cx="112" cy="356" r="14"/>
    <circle cx="518" cy="354" r="20"/>
  </g>
  <path d="M108 140h106M406 142h98M126 356h88M406 354h92" stroke="#A8E6CF" stroke-width="4" stroke-linecap="round" opacity=".55"/>
</svg>
