<svg xmlns="http://www.w3.org/2000/svg" viewBox="0 0 820 560" role="img" aria-labelledby="title desc">
  <title id="title">Engineering workspace placeholder</title>
  <desc id="desc">A stylized engineering desk with circuit board, dashboard, and development notes.</desc>
  <defs>
    <linearGradient id="bg" x1="0" x2="1" y1="0" y2="1">
      <stop offset="0" stop-color="#FBF5DD"/>
      <stop offset="1" stop-color="#A8E6CF"/>
    </linearGradient>
  </defs>
  <rect width="820" height="560" rx="16" fill="url(#bg)"/>
  <rect x="58" y="58" width="704" height="444" rx="14" fill="#0B1F23"/>
  <rect x="95" y="96" width="282" height="168" rx="10" fill="#005461" stroke="#A8E6CF" stroke-width="3"/>
  <rect x="420" y="96" width="304" height="168" rx="10" fill="#1E3D40" stroke="#A8E6CF" stroke-width="3"/>
  <rect x="95" y="304" width="630" height="158" rx="10" fill="#FBF5DD"/>
  <path d="M126 178h210M126 214h150M455 150h220M455 188h132M455 226h178" stroke="#A8E6CF" stroke-width="12" stroke-linecap="round"/>
  <g transform="translate(132 328)">
    <rect width="180" height="84" rx="10" fill="#005461"/>
    <path d="M24 40h132M24 62h88" stroke="#A8E6CF" stroke-width="8" stroke-linecap="round"/>
  </g>
  <g transform="translate(354 326)">
    <rect width="118" height="118" rx="14" fill="#1E3D40"/>
    <path d="M30 50h58M30 72h58" stroke="#3ED16F" stroke-width="7" stroke-linecap="round"/>
    <path d="M58 18v24M58 76v24M18 58h24M76 58h24" stroke="#A8E6CF" stroke-width="5" stroke-linecap="round"/>
  </g>
  <g transform="translate(522 330)">
    <rect width="150" height="108" rx="12" fill="#A8E6CF"/>
    <path d="M24 72 C54 30 91 98 126 44" fill="none" stroke="#005461" stroke-width="8" stroke-linecap="round"/>
    <circle cx="126" cy="44" r="10" fill="#3ED16F"/>
  </g>
</svg>
